<svg width="278" height="278" viewBox="0 0 278 278" fill="none" xmlns="http://www.w3.org/2000/svg">
<g clip-path="url(#clip0_9610_111202)">
<path d="M137.3 0.700012C61.9 0.700012 0.599998 62 0.599998 137.4C0.599998 212.8 61.9 274.1 137.3 274.1C212.7 274.1 274 212.8 274 137.4C274 62 212.7 0.700012 137.3 0.700012ZM137.3 264C67.5 264 10.6 207.2 10.6 137.3C10.6 67.4 67.4 10.6 137.3 10.6C207.2 10.6 264 67.4 264 137.3C264 207.2 207.2 264 137.3 264Z" fill="#f7b841"/>
<path d="M238.9 124.8L140.9 38.3C138.7 36.4 135.4 36.4 133.3 38.3L35.3 124.8C32.9 126.9 32.7 130.6 34.8 132.9C36.9 135.3 40.6 135.5 42.9 133.4L56.4 121.5V192.5C56.4 208.4 69.3 221.3 85.2 221.3H189C204.9 221.3 217.8 208.4 217.8 192.5V121.5L231.3 133.4C233.7 135.5 237.3 135.3 239.4 132.9C241.5 130.5 241.3 126.8 238.9 124.8ZM206.2 192.6C206.2 202.2 198.5 209.9 188.9 209.9H85.1C75.5 209.9 67.8 202.2 67.8 192.6V111.4L137 50.3L206.2 111.4V192.6Z" fill="#f7b841"/>
<path d="M130.4 122.1C130.5 121.2 130.6 120.3 130.6 119.5C130.6 108.4 121.5 99.3 110.4 99.3C99.3 99.3 90.2 108.4 90.2 119.5C90.2 130.6 91.7 128.5 94.6 132C87.6 134.5 82.8 141.2 82.8 148.8V166.9C82.8 171.3 86.4 174.9 90.8 174.9H109.8V188.8C109.8 193.1 113.3 196.6 117.6 196.6H118.6V170.4C118.6 165.5 122.8 161.5 127.7 161.5H147.4C152.3 161.5 156.4 165.5 156.5 170.4C156.5 170.8 156.5 173.2 156.5 188V196.7H157.4C161.7 196.7 165.2 193.2 165.2 188.9V175H184.2C188.6 175 192.2 171.4 192.2 167V148.9C192.2 141.3 187.4 134.6 180.4 132.1C183.2 128.5 184.8 124.1 184.8 119.6C184.8 108.5 175.7 99.4 164.6 99.4C153.5 99.4 144.4 108.5 144.4 119.6C144.4 130.7 144.4 121.4 144.6 122.2C140.2 120.6 135.2 120.6 130.7 122.2L130.4 122.1ZM110.2 166.1H91.4V148.7C91.4 143.7 95.5 139.6 100.5 139.6H117.2C117.2 140.1 117.2 140.5 117.2 141C117.2 145.6 118.7 150 121.6 153.5C116 155.5 111.7 160.3 110.3 166.1H110.2ZM110.4 130.9C104 130.9 98.9 125.7 98.9 119.4C98.9 113.1 104.1 107.9 110.4 107.9C116.7 107.9 121.9 113.1 121.9 119.4C121.9 125.7 116.7 130.9 110.4 130.9ZM183.3 148.7V166.1H164.5C163.1 160.3 158.8 155.5 153.2 153.5C156 149.9 157.6 145.5 157.6 141C157.6 136.5 157.6 140.1 157.6 139.6H174.3C179.3 139.6 183.4 143.7 183.4 148.7H183.3ZM164.3 107.9C170.7 107.9 175.8 113.1 175.8 119.4C175.8 125.7 170.6 130.9 164.3 130.9C158 130.9 152.8 125.7 152.8 119.4C152.8 113.1 158 107.9 164.3 107.9ZM148.9 141C148.9 147.4 143.7 152.5 137.4 152.5C131.1 152.5 125.9 147.3 125.9 141C125.9 134.7 131.1 129.5 137.4 129.5C143.7 129.5 148.9 134.7 148.9 141Z" fill="#f7b841"/>
</g>
<defs>
<clipPath id="clip0_9610_111202">
<rect width="274" height="275" fill="white"/>
</clipPath>
</defs>
</svg>
