<svg width="278" height="278" viewBox="0 0 278 278" fill="none" xmlns="http://www.w3.org/2000/svg">
<g clip-path="url(#clip0_9610_111147)">
<path d="M137.3 0.700012C61.9 0.700012 0.599976 62 0.599976 137.4C0.599976 212.8 61.9 274.1 137.3 274.1C212.7 274.1 274 212.8 274 137.4C274 62 212.7 0.700012 137.3 0.700012ZM137.3 264C67.5 264 10.6 207.2 10.6 137.3C10.6 67.4 67.4 10.6 137.3 10.6C207.2 10.6 264 67.4 264 137.3C264 207.2 207.2 264 137.3 264Z" fill="#5D6472"/>
<path d="M126 189.9C119.8 196.1 119.8 206.3 126 212.5C132.2 218.7 142.4 218.7 148.6 212.5C154.8 206.3 154.8 196.1 148.6 189.9C142.4 183.7 132.2 183.7 126 189.9Z" fill="#5D6472"/>
<path d="M137.3 140.4C121.1 140.4 105.8 146.7 94.3 158.2C93 159.5 92.2 161.3 92.2 163.2C92.2 165.1 92.9 166.9 94.3 168.2C95.6 169.5 97.4 170.3 99.3 170.3C101.2 170.3 103 169.6 104.3 168.2C113.1 159.4 124.8 154.5 137.3 154.5C149.8 154.5 161.5 159.4 170.3 168.2C171.6 169.5 173.4 170.3 175.3 170.3C177.2 170.3 179 169.6 180.3 168.2C181.6 166.9 182.4 165.1 182.4 163.2C182.4 161.3 181.7 159.5 180.3 158.2C168.8 146.7 153.6 140.4 137.3 140.4Z" fill="#5D6472"/>
<path d="M137.3 99C110 99 84.3 109.6 65 128.9C63.7 130.2 62.9 132 62.9 133.9C62.9 135.8 63.6 137.6 65 138.9C66.3 140.2 68.1 141 70 141C71.9 141 73.7 140.3 75 138.9C91.6 122.3 113.7 113.1 137.3 113.1C160.9 113.1 182.9 122.3 199.6 138.9C200.9 140.2 202.7 141 204.6 141C206.5 141 208.3 140.3 209.6 138.9C210.9 137.6 211.7 135.8 211.7 133.9C211.7 132 211 130.2 209.6 128.9C190.3 109.6 164.6 99 137.3 99Z" fill="#5D6472"/>
<path d="M239 99.6C211.9 72.5 175.8 57.5 137.4 57.5C99 57.5 62.9 72.5 35.8 99.6C34.5 100.9 33.7 102.7 33.7 104.6C33.7 106.5 34.4 108.3 35.8 109.6C37.1 110.9 38.9 111.7 40.8 111.7C42.7 111.7 44.5 111 45.8 109.6C70.3 85.1 102.8 71.6 137.4 71.6C172 71.6 204.5 85.1 229 109.6C231.8 112.4 236.3 112.4 239 109.6C241.8 106.8 241.8 102.3 239 99.6Z" fill="#5D6472"/>
</g>
<defs>
<clipPath id="clip0_9610_111147">
<rect width="274" height="275" fill="white"/>
</clipPath>
</defs>
</svg>
