<svg width="278" height="278" viewBox="0 0 278 278" fill="none" xmlns="http://www.w3.org/2000/svg">
<g clip-path="url(#clip0_9610_111169)">
<path d="M137.3 0.700012C61.9 0.700012 0.600006 62 0.600006 137.4C0.600006 212.8 61.9 274.1 137.3 274.1C212.7 274.1 274 212.8 274 137.4C274 62 212.7 0.700012 137.3 0.700012ZM137.3 264C67.5 264 10.6 207.2 10.6 137.3C10.6 67.4 67.4 10.6 137.3 10.6C207.2 10.6 264 67.4 264 137.3C264 207.2 207.2 264 137.3 264Z" fill="#5D6472"/>
<path d="M229.7 181.2H228.8V72.3C228.8 65.6 223.3 60.1 216.6 60.1H58C51.3 60.1 45.8 65.6 45.8 72.3V181.2H44.9C41 181.2 37.8 184.4 37.8 188.3V190.1C37.8 196.3 47.1 207.9 60.2 207.9H214.2C227.4 207.9 236.6 196.4 236.6 190.1V188.3C236.6 184.4 233.4 181.2 229.5 181.2H229.7ZM53.9 181.2V72.3C53.9 70 55.7 68.2 58 68.2H216.7C219 68.2 220.8 70 220.8 72.3V181.2H53.9ZM154.5 189.3C154.3 189.8 153.8 190.1 153.3 190.1H121.2C120.7 190.1 120.2 189.8 120 189.3H154.5ZM45.9 189.2H81.7C101 189.2 108.7 189.2 111.4 189.2L112.6 192.2C114 195.7 117.5 198.1 121.3 198.1H153.4C157.3 198.1 160.6 195.8 162.1 192.2L163.3 189.1H228.8V189.2C226.7 195.4 221 199.5 214.4 199.5H60.3C53.9 199.5 48 195.3 45.9 189.2Z" fill="#5D6472"/>
<path d="M206.4 73.3H68.2C63.9 73.3 60.5 76.8 60.5 81V168.4C60.5 172.7 64 176.1 68.2 176.1H206.4C210.7 176.1 214.1 172.6 214.1 168.4V81C214.1 76.7 210.6 73.3 206.4 73.3ZM206.3 81.1V168.3H68.3V81.1H206.3Z" fill="#5D6472"/>
</g>
<defs>
<clipPath id="clip0_9610_111169">
<rect width="274" height="275" fill="white"/>
</clipPath>
</defs>
</svg>
