<svg width="278" height="278" viewBox="0 0 278 278" fill="none" xmlns="http://www.w3.org/2000/svg">
<g clip-path="url(#clip0_9610_111178)">
<path d="M137.3 274C61.9 274 0.600006 212.7 0.600006 137.3C0.600006 61.9 62 0.700012 137.3 0.700012C212.6 0.700012 274 62 274 137.4C274 212.8 212.7 274.1 137.3 274.1V274ZM137.3 10.7C67.5 10.7 10.6 67.5 10.6 137.4C10.6 207.3 67.4 264.1 137.3 264.1C207.2 264.1 264 207.3 264 137.4C264 67.5 207.2 10.7 137.3 10.7Z" fill="#004972"/>
<path d="M125.2 121.4C124.1 108.1 113.4 97.6 100.3 96.4C102.1 95.4 103.8 94.1 105.4 92.6C109.5 88.5 111.7 83.1 111.7 77.3C111.7 71.5 109.4 66.1 105.4 62C101.3 57.9 95.9 55.7 90.1 55.7C84.3 55.7 78.9 58 74.8 62C70.7 66.1 68.5 71.5 68.5 77.3C68.5 83.1 70.8 88.5 74.8 92.6C76.3 94.1 78 95.4 79.9 96.4C66.8 97.5 56.1 108.1 55 121.3L53.5 138.8C52.7 148.6 58.6 157.7 67.8 161L68.5 161.2V214.2C68.5 216.8 70.6 218.9 73.2 218.9C75.8 218.9 77.9 216.8 77.9 214.2V162.2H102.6V214.2C102.6 216.8 104.7 218.9 107.3 218.9C109.9 218.9 112 216.8 112 214.2V161.2L112.7 161C121.9 157.7 127.8 148.6 127 138.8L125.5 121.3L125.2 121.4ZM81.4 68.7C83.7 66.4 86.8 65.1 90.1 65.1C93.4 65.1 96.5 66.4 98.8 68.7C101.1 71 102.4 74.1 102.4 77.4C102.4 80.7 101.1 83.8 98.8 86.1C96.5 88.4 93.4 89.7 90.1 89.7C86.8 89.7 83.7 88.4 81.4 86.1C79.1 83.8 77.8 80.7 77.8 77.4C77.8 74.1 79.1 71 81.4 68.7ZM114.2 149C111.9 151.5 108.6 153 105.2 153H75.1C71.6 153 68.3 151.5 66 149C63.7 146.5 62.5 143.1 62.8 139.6L64.3 122.2C65 113 72.9 105.7 82.2 105.7H98.1C107.4 105.7 115.2 112.9 116 122.2L117.5 139.6C117.8 143 116.6 146.5 114.3 149H114.2Z" fill="#004972"/>
<path d="M220.9 160.5L207.1 112.1C204.9 104.2 198.3 98.3 190.4 96.8C192.5 95.8 194.4 94.4 196.1 92.7C200.2 88.6 202.4 83.2 202.4 77.4C202.4 71.6 200.1 66.2 196.1 62.1C192 58 186.6 55.8 180.8 55.8C175 55.8 169.6 58.1 165.5 62.1C161.4 66.2 159.2 71.6 159.2 77.4C159.2 83.2 161.5 88.6 165.5 92.7C167.2 94.4 169.1 95.7 171.2 96.8C163.3 98.3 156.7 104.2 154.4 112.1L140.6 160.5C139.7 163.7 140.3 167 142.3 169.6C144.3 172.2 147.3 173.7 150.5 173.7H159.1V214.3C159.1 216.9 161.2 219 163.8 219C166.4 219 168.5 216.9 168.5 214.3V173.7H193.2V214.3C193.2 216.9 195.3 219 197.9 219C200.5 219 202.6 216.9 202.6 214.3V173.7H211.2C214.5 173.7 217.5 172.2 219.4 169.6C221.4 167 222 163.7 221.1 160.5H220.9ZM172 68.7C174.3 66.4 177.4 65.1 180.7 65.1C184 65.1 187.1 66.4 189.4 68.7C191.7 71 193 74.1 193 77.4C193 80.7 191.7 83.8 189.4 86.1C187.1 88.4 184 89.7 180.7 89.7C177.4 89.7 174.3 88.4 172 86.1C169.7 83.8 168.4 80.7 168.4 77.4C168.4 74.1 169.7 71 172 68.7ZM149.1 164.3L163.3 114.6C164.8 109.3 169.7 105.7 175.2 105.7H186.3C191.8 105.7 196.7 109.4 198.2 114.6L212.4 164.3H149.2H149.1Z" fill="#004972"/>
</g>
<defs>
<clipPath id="clip0_9610_111178">
<rect width="274" height="275" fill="white"/>
</clipPath>
</defs>
</svg>
