<svg width="278" height="278" viewBox="0 0 278 278" fill="none" xmlns="http://www.w3.org/2000/svg">
<g clip-path="url(#clip0_9610_111156)">
<path d="M137.3 0.700012C61.9 0.700012 0.599998 62 0.599998 137.4C0.599998 212.8 61.9 274.1 137.3 274.1C212.7 274.1 274 212.8 274 137.4C274 62 212.7 0.700012 137.3 0.700012ZM137.3 264C67.5 264 10.6 207.2 10.6 137.3C10.6 67.4 67.4 10.6 137.3 10.6C207.2 10.6 264 67.4 264 137.3C264 207.2 207.2 264 137.3 264Z" fill="#004972"/>
<path d="M222.3 112.3C218.7 111.6 211 112.5 207.2 121.3L196.7 149.6C194.9 148.8 193 148.3 191.1 148.3C189.2 148.3 186.1 149 184 150.4L156.2 168.3C147.8 173.4 141.5 180.3 137.5 188.7C133.5 180.2 127.2 173.4 118.8 168.3L91 150.4C88.9 149 86.4 148.3 83.8 148.3C81.2 148.3 79.9 148.7 78.2 149.6C71.2 130.8 67.7 121.367 67.7 121.3C63.9 112.5 56.2 111.6 52.6 112.3C45.3 113.7 40.6 120 41.5 127.3C41.5 127.3 41.5 127.5 53.4 175.2C56.6 187.9 65.2 200.7 76.5 209.4L95 222.6V228.8C95 233.4 98.8 237.2 103.4 237.2H171.7C176.3 237.2 180.1 233.4 180.1 228.8V222.6L198.5 209.5H198.6C209.9 200.6 218.5 187.8 221.7 175.1C233.5 127.5 233.6 127.3 233.6 127.2C234.5 119.9 229.9 113.5 222.6 112.2L222.3 112.3ZM132.6 210.5C132.6 210.7 132.6 212.2 132.6 227.7H104.2V220.1C104.2 218.6 103.5 217.1 102.2 216.3L82 201.8C72.5 194.4 65 183.3 62.4 172.8L50.7 125.8C50.5 123.5 51.8 121.9 54.2 121.4C54.9 121.3 57.3 121.2 58.8 124.7L71 157.5C69.6 162.1 70.8 167 74.1 170.5C74.1 170.5 74.3 170.7 93.4 185.8C94.4 186.6 95.6 186.9 96.9 186.8C98.2 186.7 99.3 186 100 185C101.6 183 101.3 180 99.2 178.4L80.7 163.8C79.5 162.3 79.6 160.1 80.9 158.7C82.1 157.5 84.2 157.2 85.7 158.2C104.367 170.133 113.7 176.133 113.7 176.2C122.3 181.4 128 188.7 130.9 197.9C133 204.7 132.6 210.2 132.6 210.5ZM212.3 172.9C209.7 183.4 202.1 194.6 192.7 201.9L172.4 216.4C171.2 217.3 170.4 218.7 170.4 220.2V227.8H142C142 210.7 142 210.6 142 210.5C142 210.3 140.4 188.6 160.9 176.2C160.9 176.2 170.233 170.2 188.9 158.2C190.4 157.3 192.4 157.5 193.6 158.7C195 160.1 195.1 162.3 193.8 163.8L175.3 178.4C174.3 179.2 173.7 180.3 173.5 181.5C173.3 182.7 173.7 184 174.5 185C175.3 186 176.4 186.6 177.6 186.8C178.8 186.9 180.1 186.6 181.1 185.8C200.2 170.7 200.3 170.6 200.4 170.5C203.7 167 204.9 162.1 203.5 157.5L215.7 124.8C217.2 121.3 219.6 121.3 220.2 121.4H220.3C222.6 121.9 224 123.5 223.8 125.8L212.1 172.8L212.3 172.9Z" fill="#004972"/>
<path d="M89.8 129.5H109.6V143.9C109.6 148.4 113.2 152 117.7 152H118.8V124.7C118.8 119.6 123.1 115.4 128.3 115.4H148.9C154 115.4 158.3 119.6 158.4 124.7C158.4 125.1 158.4 127.6 158.4 143V152H159.4C163.9 152 167.5 148.4 167.5 143.9V129.5H187.3C191.9 129.5 195.6 125.8 195.6 121.2V102.3C195.6 94.4 190.6 87.5 183.3 84.8C186.3 81.1 187.9 76.5 187.9 71.7C187.9 60.1 178.5 50.7 166.9 50.7C155.3 50.7 145.9 60.1 145.9 71.7C145.9 83.3 145.9 73.5 146.1 74.5C141.5 72.8 136.3 72.8 131.6 74.5C131.7 73.6 131.8 72.7 131.8 71.7C131.8 60.1 122.4 50.7 110.8 50.7C99.2 50.7 89.8 60.1 89.8 71.7C89.8 83.3 91.4 81.1 94.4 84.8C87.1 87.4 82.1 94.4 82.1 102.3V121.2C82.1 125.8 85.8 129.5 90.4 129.5H89.8ZM186.2 102.3V120.4H166.6C165.1 114.4 160.6 109.4 154.8 107.3C157.8 103.6 159.4 99 159.4 94.2C159.4 89.4 159.4 93.2 159.4 92.7H176.8C182 92.7 186.3 97 186.3 102.2L186.2 102.3ZM166.4 59.7C173 59.7 178.4 65.1 178.4 71.7C178.4 78.3 173 83.7 166.4 83.7C159.8 83.7 154.4 78.3 154.4 71.7C154.4 65.1 159.8 59.7 166.4 59.7ZM138.3 82.3C144.9 82.3 150.3 87.7 150.3 94.3C150.3 100.9 144.9 106.3 138.3 106.3C131.7 106.3 126.3 100.9 126.3 94.3C126.3 87.7 131.7 82.3 138.3 82.3ZM110.2 59.7C116.8 59.7 122.2 65.1 122.2 71.7C122.2 78.3 116.8 83.7 110.2 83.7C103.6 83.7 98.2 78.3 98.2 71.7C98.2 65.1 103.6 59.7 110.2 59.7ZM90.5 102.3C90.5 97.1 94.8 92.8 100 92.8H117.4C117.4 93.3 117.4 93.8 117.4 94.3C117.4 99.1 119 103.7 122 107.4C116.2 109.5 111.7 114.4 110.2 120.5H90.6V102.4L90.5 102.3Z" fill="#004972"/>
</g>
<defs>
<clipPath id="clip0_9610_111156">
<rect width="274" height="275" fill="white"/>
</clipPath>
</defs>
</svg>
