<svg width="278" height="278" viewBox="0 0 278 278" fill="none" xmlns="http://www.w3.org/2000/svg">
<g clip-path="url(#clip0_9610_111160)">
<path d="M137.4 273.7C62 273.7 0.700012 212.4 0.700012 137C0.700012 61.6 62.1 0.400002 137.4 0.400002C212.7 0.400002 274.1 61.7 274.1 137.1C274.1 212.5 212.8 273.8 137.4 273.8V273.7ZM137.4 10.4C67.6 10.4 10.7 67.2 10.7 137.1C10.7 207 67.5 263.8 137.4 263.8C207.3 263.8 264.1 207 264.1 137.1C264.1 67.2 207.3 10.4 137.4 10.4Z" fill="#004972"/>
<path d="M152 149.6C169.5 144 182.7 128.5 184.9 109.8H188.5C191.7 109.8 194.2 107.2 194.2 104.1C194.2 101 191.6 98.4 188.5 98.4H182.8C182.8 79 170.8 62.5 153.8 55.7C152.7 50.6 148.1 46.7 142.6 46.7H131.1C125.6 46.7 121.1 50.5 119.9 55.7C102.9 62.4 90.9 79 90.9 98.4H85.2C82 98.4 79.5 101 79.5 104.1C79.5 107.2 82.1 109.8 85.2 109.8H89.8C92.1 128.6 105.2 144 122.7 149.6C96.7 150.6 75.8 172.1 75.8 198.4V214.6C75.8 220.8 80 226 85.9 227.4V198.4C86 177.1 103.4 159.8 124.7 159.8H150.1C171.4 159.8 188.7 177.1 188.7 198.4V227.4C194.7 226 198.9 220.8 198.9 214.6V198.4C198.9 172.1 178 150.6 152 149.6ZM119.7 68.5V75.4C119.7 78.6 122.3 81.1 125.4 81.1C128.5 81.1 131.1 78.5 131.1 75.4V58.2H142.6V75.4C142.6 78.6 145.2 81.1 148.3 81.1C151.4 81.1 154 78.5 154 75.4V68.5C164.3 74.5 171.2 85.6 171.2 98.3H102.3C102.3 85.5 109.2 74.4 119.5 68.5H119.7ZM99.9 109.8H174.8C172 128 156.3 141.9 137.3 141.9C118.3 141.9 102.6 127.9 99.8 109.8H99.9Z" fill="#004972"/>
</g>
<defs>
<clipPath id="clip0_9610_111160">
<rect width="275" height="274" fill="white"/>
</clipPath>
</defs>
</svg>
