<svg width="278" height="278" viewBox="0 0 278 278" fill="none" xmlns="http://www.w3.org/2000/svg">
<g clip-path="url(#clip0_9610_111173)">
<path d="M137.6 0C62.2 0 0.900024 61.3 0.900024 136.7C0.900024 212.1 62.2 273.4 137.6 273.4C213 273.4 274.3 212.1 274.3 136.7C274.3 61.3 213 0 137.6 0ZM137.6 263.3C67.8 263.3 10.9 206.5 10.9 136.6C10.9 66.7 67.7 9.9 137.6 9.9C207.5 9.9 264.3 66.7 264.3 136.6C264.3 206.5 207.5 263.3 137.6 263.3Z" fill="#004972"/>
<path d="M145.5 130.9C143.5 132.1 140.6 132.8 137.5 132.7C133.5 132.6 129.8 131.3 125.3 129.8C124.5 129.5 123.7 129.3 122.9 129C120.1 128.1 117 129.6 116.1 132.4C115.2 135.2 116.7 138.3 119.5 139.2C120.2 139.4 120.9 139.7 121.6 139.9C124.7 141 128.2 142.2 132 142.9V148.9C132 151.9 134.4 154.3 137.4 154.3C140.4 154.3 142.8 151.9 142.8 148.9V143.1C145.7 142.6 148.7 141.6 151.3 140C155.8 137.2 159.1 132.5 159 126C159 119.8 155.4 115.7 151.3 113.1C147.6 110.8 142.9 109.3 139.1 108.2H138.9C134.7 106.9 131.4 105.9 129.1 104.5C127.1 103.3 126.7 102.3 126.6 101.1C126.6 99.3 127.4 97.9 129.3 96.8C131.4 95.6 134.4 94.9 137.3 94.9C140.7 94.9 144.4 95.7 148.1 96.7C151 97.5 153.9 95.8 154.7 92.9C155.5 90 153.8 87.1 150.9 86.3C148.4 85.6 145.6 85 142.8 84.6V78.8C142.8 75.8 140.4 73.4 137.4 73.4C134.4 73.4 132 75.8 132 78.8V84.6C129.2 85.1 126.4 86.1 123.9 87.5C119.5 90.1 115.8 94.6 115.9 101.2C115.9 107.4 119.5 111.4 123.6 113.8C127.1 115.9 131.6 117.3 135.3 118.4L135.8 118.6C140 119.9 143.3 120.9 145.6 122.4C147.6 123.6 148.2 124.8 148.2 126.3C148.2 128.5 147.3 129.9 145.6 131L145.5 130.9Z" fill="#004972"/>
<path d="M137.3 183.9C155.9 183.9 173.8 176.5 186.9 163.4C200.1 150.2 207.4 132.4 207.4 113.8C207.4 95.2 200 77.3 186.9 64.2C173.7 51 155.9 43.7 137.3 43.7C118.7 43.7 100.8 51.1 87.7 64.2C74.6 77.3 67.2 95.2 67.2 113.8C67.2 132.4 74.6 150.3 87.7 163.4C100.8 176.5 118.7 183.9 137.3 183.9ZM78 113.7C78 105.9 79.5 98.2 82.5 91C85.5 83.8 89.9 77.3 95.4 71.7C100.9 66.2 107.5 61.8 114.7 58.8C121.9 55.8 129.6 54.3 137.4 54.3C145.2 54.3 152.9 55.8 160.1 58.8C167.3 61.8 173.8 66.2 179.4 71.7C184.9 77.2 189.3 83.8 192.3 91C195.3 98.2 196.8 105.9 196.8 113.7C196.8 121.5 195.3 129.2 192.3 136.4C189.3 143.6 184.9 150.1 179.4 155.7C173.9 161.2 167.3 165.6 160.1 168.6C152.9 171.6 145.2 173.1 137.4 173.1C129.6 173.1 121.9 171.6 114.7 168.6C107.5 165.6 101 161.2 95.4 155.7C89.9 150.2 85.5 143.6 82.5 136.4C79.5 129.2 78 121.5 78 113.7Z" fill="#004972"/>
<path d="M204.8 162.3H202.1C199.2 166.2 195.9 169.8 192.4 173.1H204.8C209.3 173.1 212.9 176.7 212.9 181.2V197.4C212.9 201.9 209.3 205.5 204.8 205.5H69.9C65.4 205.5 61.8 201.9 61.8 197.4V181.2C61.8 176.7 65.4 173.1 69.9 173.1H82.3C78.8 169.8 75.5 166.2 72.6 162.3H69.9C59.5 162.3 51 170.8 51 181.2V197.4C51 207.8 59.5 216.3 69.9 216.3H204.8C215.2 216.3 223.7 207.8 223.7 197.4V181.2C223.7 170.8 215.2 162.3 204.8 162.3Z" fill="#004972"/>
</g>
<defs>
<clipPath id="clip0_9610_111173">
<rect width="275" height="274" fill="white"/>
</clipPath>
</defs>
</svg>
