<svg width="278" height="278" viewBox="0 0 278 278" fill="none" xmlns="http://www.w3.org/2000/svg">
<g clip-path="url(#clip0_9610_111183)">
<path d="M137.3 0.700012C61.9 0.700012 0.600006 62 0.600006 137.4C0.600006 212.8 61.9 274.1 137.3 274.1C212.7 274.1 274 212.8 274 137.4C274 62 212.7 0.700012 137.3 0.700012ZM137.3 264C67.5 264 10.6 207.2 10.6 137.3C10.6 67.4 67.4 10.6 137.3 10.6C207.2 10.6 264 67.4 264 137.3C264 207.2 207.2 264 137.3 264Z" fill="#f7b841"/>
<path d="M233.1 75H221.8V72.2C221.8 69.8 220.3 67.6 218 66.9C209.1 64.6 199.9 63.4 190.7 63.4C181.5 63.4 190.5 63.4 190.4 63.4C175.7 63.4 155.1 66.6 139.5 81.6C124.2 66.6 103.5 63.4 88.6 63.4C73.7 63.4 88.4 63.4 88.3 63.4C79.1 63.4 69.9 64.6 60.9 66.9C58.6 67.6 57 69.7 57.1 72.1V74.9H45.9C43 74.9 40.6 77.3 40.6 80.2V200.7C40.6 203.6 43 206 45.9 206C46.8 206 47.7 205.8 48.5 205.3C52.4 203.2 88.3 185.3 138.2 197.9H139.4C139.8 197.9 140.2 197.9 140.6 197.9H140.8C191.2 185.1 227.3 203.5 230.2 205.1L230.5 205.3C231.3 205.8 232.2 206 233.1 206C234 206 234.9 205.8 235.7 205.3C237.3 204.4 238.3 202.6 238.3 200.8V80.3C238.3 77.4 235.9 75 233 75H233.1ZM192.4 182.1C200.2 182.1 208.2 182.8 215.9 183.9C217.3 184.1 218.7 183.8 219.8 182.9C220.9 182.1 221.7 180.8 221.9 179.4C221.9 179.1 221.9 178.8 221.9 178.6V85.5H227.9V192.5C211.7 186.2 194.7 183 177.5 182.9C182.4 182.2 187.3 181.9 192.3 182L192.4 182.1ZM192.4 171.5C169 171.5 153.9 177.1 144.8 182.4V91.7C158.1 77.2 176.9 74.1 190.4 74.1C197.4 74.1 204.4 74.9 211.3 76.3V172.7C205 172 198.7 171.6 192.4 171.5ZM86.7 171.6C80.4 171.6 74 172 67.7 172.7V76.3C74.6 74.9 81.6 74.1 88.6 74.1C102.2 74.1 121 77.2 134.2 91.7V182.4C125.4 177.2 110.3 171.6 86.8 171.6H86.7ZM62.5 184C62.8 184 63.1 184 63.4 184C71.1 182.8 79 182.2 86.8 182.1C91.7 182.1 96.7 182.3 101.5 183C84.4 183.1 67.3 186.4 51.3 192.6V85.6H57.3V178.7C57.3 181.6 59.6 184 62.5 184Z" fill="#f7b841"/>
<path d="M100.2 92.6C92.8 91.6 84.9 92 76.7 93.7C75.4 94 74.4 95.7 74.6 97.6C74.8 99.5 76.1 100.8 77.4 100.5C88.2 98.2 108.6 96.5 124.5 110.2C125.7 111.2 127.2 110.7 127.9 109.1C128.6 107.5 128.3 105.4 127.1 104.3C119.6 97.8 110.5 93.8 100.2 92.5V92.6Z" fill="#f7b841"/>
<path d="M100.2 117.5C92.8 116.5 84.9 116.9 76.7 118.6C75.4 118.9 74.4 120.6 74.6 122.5C74.8 124.4 76.1 125.7 77.4 125.4C88.2 123.1 108.6 121.4 124.5 135.1C125.7 136.1 127.2 135.6 127.9 134C128.6 132.4 128.3 130.3 127.1 129.2C119.6 122.7 110.5 118.7 100.2 117.4V117.5Z" fill="#f7b841"/>
<path d="M100.2 142.5C92.8 141.5 84.9 141.9 76.7 143.6C75.4 143.9 74.4 145.6 74.6 147.5C74.8 149.4 76.1 150.7 77.4 150.4C88.2 148.1 108.6 146.4 124.5 160.1C125.7 161.1 127.2 160.6 127.9 159C128.6 157.4 128.3 155.3 127.1 154.2C119.6 147.7 110.5 143.7 100.2 142.4V142.5Z" fill="#f7b841"/>
<path d="M202.8 93.7C194.6 92 186.7 91.6 179.3 92.6C169 93.9 159.9 97.9 152.4 104.4C151.2 105.4 150.9 107.5 151.6 109.2C152.3 110.8 153.8 111.3 155 110.3C170.9 96.5 191.3 98.3 202.1 100.6C203.4 100.9 204.7 99.6 204.9 97.7C205.1 95.8 204.2 94.1 202.8 93.8V93.7Z" fill="#f7b841"/>
<path d="M202.8 118.7C194.6 117 186.7 116.6 179.3 117.6C169 118.9 159.9 122.9 152.4 129.4C151.2 130.4 150.9 132.5 151.6 134.2C152.3 135.8 153.8 136.3 155 135.3C170.9 121.5 191.3 123.3 202.1 125.6C203.4 125.9 204.7 124.6 204.9 122.7C205.1 120.8 204.2 119.1 202.8 118.8V118.7Z" fill="#f7b841"/>
<path d="M202.8 143.6C194.6 141.9 186.7 141.5 179.3 142.5C169 143.8 159.9 147.8 152.4 154.3C151.2 155.3 150.9 157.4 151.6 159.1C152.3 160.7 153.8 161.2 155 160.2C170.9 146.4 191.3 148.2 202.1 150.5C203.4 150.8 204.7 149.5 204.9 147.6C205.1 145.7 204.2 144 202.8 143.7V143.6Z" fill="#f7b841"/>
</g>
<defs>
<clipPath id="clip0_9610_111183">
<rect width="274" height="275" fill="white"/>
</clipPath>
</defs>
</svg>
