<svg width="278" height="278" viewBox="0 0 278 278" fill="none" xmlns="http://www.w3.org/2000/svg">
<g clip-path="url(#clip0_9610_111153)">
<path d="M137.3 0.699997C61.9 0.699997 0.600006 62 0.600006 137.4C0.600006 212.8 61.9 274.1 137.3 274.1C212.7 274.1 274 212.8 274 137.4C274 62 212.7 0.699997 137.3 0.699997ZM137.3 264C67.5 264 10.6 207.2 10.6 137.3C10.6 67.4 67.4 10.6 137.3 10.6C207.2 10.6 264 67.4 264 137.3C264 207.2 207.2 264 137.3 264Z" fill="#f7b841"/>
<path d="M216.7 172.2C216.6 171.2 216.5 170.1 216.4 169.1V168.1L204.9 164.1C206.6 160 207.3 156.1 207 152.3C206.3 144 201 136.2 190 127V76C190 43.2 177.5 30.8 167 26.1C149 18.1 125.1 27.4 110.1 39.7C108.4 38.9 106.6 38.5 104.8 38.5C101.2 38.5 97.9 40 95.2 42.9C86 52.6 82.2 80.2 83.5 127.6C73.2 136.2 68.3 149.5 70 164.2L58.2 167.9V169.3C57.9 171.4 57.7 173.7 57.6 176V178.2C57.5 178.2 71.8 173.4 71.8 173.4C73 177.6 74.8 181.7 77 185.6C72.6 191 72.3 198.8 76.3 204.6L86.6 219.5C87.3 220.5 88.4 221.2 89.6 221.4C90.8 221.6 92.1 221.4 93.1 220.6L96.6 218.2C97.6 217.5 98.3 216.4 98.5 215.2C98.7 214 98.5 212.8 97.7 211.7C96.3 209.7 93.6 209.1 91.6 210.3L83.9 199.2C81.8 196.2 82.6 192.2 85.5 190.1C86.9 189.1 88.7 188.7 90.4 189C92.1 189.3 93.6 190.3 94.6 191.7L102.3 202.8C101.4 203.5 100.7 204.5 100.5 205.7C100.3 206.9 100.5 208.1 101.3 209.2C102.8 211.3 105.6 211.8 107.7 210.4L111.4 207.8C113.5 206.3 114 203.4 112.6 201.4L102.3 186.5C99.9 183 96.3 180.7 92.1 180C89.7 179.6 87.1 179.7 84.8 180.4C83.1 177.2 81.7 173.9 80.7 170.4L105 162.2L129.2 243V243.2C129.4 243.4 129.4 243.7 129.5 244L131.8 251.8H142.4L169.3 161.8L191.2 169.4C189.6 171.6 187.6 174 185.2 176.8C183.5 176.2 181.8 175.8 180.1 175.8C172.2 175.8 165.9 182.2 165.9 190C165.9 197.8 172.3 204.2 180.1 204.2C187.9 204.2 194.3 197.8 194.3 190C194.3 182.2 193.6 184.9 192.3 182.7C195.7 178.8 198.3 175.5 200.3 172.4L217.1 178.2L216.9 175.9C216.9 174.7 216.7 173.4 216.6 172.2H216.7ZM180.1 194.9C177.4 194.9 175.1 192.7 175.1 189.9C175.1 187.1 177.3 184.9 180.1 184.9C182.9 184.9 185.1 187.1 185.1 189.9C185.1 192.7 182.9 194.9 180.1 194.9ZM79 161C78.5 153.4 80.3 146.4 84 140.7C84.2 144.6 84.4 148.7 84.6 153.1C84.7 155.6 84.8 157.7 84.9 159L79.1 161H79ZM137.1 237.1L123.2 190.7C131.3 184.5 142.8 184.1 151.3 189.8L137.1 237.1ZM154 180.6C143.6 174.9 130.5 175.2 120.4 181.4L113.4 158C118.5 150 121.1 142.4 121.3 134.9C126.3 136.8 131.6 137.8 137.2 137.8C143 137.8 149 136.5 154.6 134.1C154.6 141.3 156.8 148.6 161.4 156.2L154.1 180.6H154ZM105.7 88.7C118.3 85.2 128.6 77.5 133.6 67.6C142.3 74.9 154.3 79 167 79C179.7 79 167.3 79 167.4 79C168.6 86.8 169 100 168.2 105.6C166 119.9 150.6 128.5 137.1 128.5C130.3 128.5 123.8 126.6 118.3 123.1C106 115.1 105.2 103.8 105.7 88.8V88.7ZM180.7 155.7L169.4 151.8C164.2 143.3 162.6 135.5 164.4 128.1C171.5 122.5 176 115.2 177.3 106.9C178.6 98.6 177.7 80.2 175.6 72.8C175 70.7 173 69.3 170.8 69.4C159.6 70.3 144.3 67.2 135.3 56.1C134.2 54.7 132.4 54.1 130.6 54.5C128.9 54.9 127.5 56.3 127.1 58C124.7 68.7 114.2 77.5 100.2 80.3C98.1 80.7 96.6 82.5 96.5 84.6C95.8 100.1 95.1 117.7 111.5 129.4C112.8 136.4 111 143.7 106.2 151.6L93.9 155.7C93.9 154.7 93.8 153.6 93.7 152.4C91.5 111.4 91.2 60.2 101.8 48.9C102.8 47.9 103.7 47.4 104.7 47.4C105.7 47.4 106.4 47.8 107.4 48.7C109.2 50.2 111.8 50.2 113.5 48.7C126.5 36.9 148.3 27.8 163.1 34.4C174.5 39.5 180.6 53.8 180.6 75.8V155.6L180.7 155.7ZM196.2 161.1L190 159V139.5C195 144.5 197.5 148.9 197.8 153.1C198 155.5 197.5 158.1 196.1 161.1H196.2Z" fill="#f7b841"/>
</g>
<defs>
<clipPath id="clip0_9610_111153">
<rect width="274" height="275" fill="white"/>
</clipPath>
</defs>
</svg>
