<svg width="278" height="278" viewBox="0 0 278 278" fill="none" xmlns="http://www.w3.org/2000/svg">
<g clip-path="url(#clip0_9610_111166)">
<path d="M137.3 274C61.9 274 0.599998 212.7 0.599998 137.3C0.599998 61.9 62 0.700012 137.3 0.700012C212.6 0.700012 274 62 274 137.4C274 212.8 212.7 274.1 137.3 274.1V274ZM137.3 10.7C67.5 10.7 10.6 67.5 10.6 137.4C10.6 207.3 67.4 264.1 137.3 264.1C207.2 264.1 264 207.3 264 137.4C264 67.5 207.2 10.7 137.3 10.7Z" fill="#872C8F"/>
<path d="M174.7 53.6C172 53.6 169.7 55.8 169.7 58.6C169.7 61.4 171.9 63.6 174.7 63.6H197.1L149.7 106.7L108.4 74.6C106.7 73.2 104.2 73.2 102.5 74.6L48 114.3C45.8 115.9 45.3 119 46.9 121.2C48.5 123.4 51.6 123.9 53.8 122.3L105.3 84.8L147 117.2C148.9 118.7 151.6 118.6 153.4 117L204.6 70.5V93.6C204.6 96.3 206.8 98.6 209.6 98.6C212.4 98.6 214.6 96.4 214.6 93.6V58.9C214.6 56.2 212.4 53.9 209.6 53.9H174.9L174.7 53.6ZM105.3 192.4C102.6 192.4 100.3 190.2 100.3 187.4V137.8C100.3 135.1 102.5 132.8 105.3 132.8C108.1 132.8 110.3 135 110.3 137.8V187.4C110.3 190.1 108.1 192.4 105.3 192.4ZM105.3 123C97.1 123 90.4 129.7 90.4 137.9V187.5C90.4 195.7 97.1 202.4 105.3 202.4C113.5 202.4 120.2 195.7 120.2 187.5V137.9C120.2 129.7 113.5 123 105.3 123ZM70.6 187.5C70.6 190.2 68.4 192.5 65.6 192.5C62.8 192.5 60.6 190.3 60.6 187.5V167.7C60.6 165 62.8 162.7 65.6 162.7C68.4 162.7 70.6 164.9 70.6 167.7V187.5ZM65.7 152.8C57.5 152.8 50.8 159.5 50.8 167.7V187.5C50.8 195.7 57.5 202.4 65.7 202.4C73.9 202.4 80.6 195.7 80.6 187.5V167.7C80.6 159.5 73.9 152.8 65.7 152.8ZM145 167.7C145 158.5 148.7 149.7 155.2 143.2C161.7 136.7 170.5 133 179.7 133C188.9 133 197.7 136.7 204.2 143.2C210.7 149.7 214.4 158.5 214.4 167.7C214.4 176.9 210.7 185.7 204.2 192.2C197.7 198.7 188.9 202.4 179.7 202.4C170.5 202.4 161.7 198.7 155.2 192.2C148.7 185.7 145 176.9 145 167.7ZM224.3 167.7C224.3 155.9 219.6 144.5 211.2 136.2C202.8 127.8 191.5 123.1 179.7 123.1C167.9 123.1 156.5 127.8 148.2 136.2C139.8 144.6 135.1 155.9 135.1 167.7C135.1 179.5 139.8 190.9 148.2 199.2C156.6 207.6 167.9 212.3 179.7 212.3C191.5 212.3 202.9 207.6 211.2 199.2C219.6 190.8 224.3 179.5 224.3 167.7ZM172.3 158.7C172.3 158.1 172.3 157.8 172.5 157.6C172.7 157.3 173.1 156.9 173.8 156.5C175.4 155.7 177.7 155.2 179.6 155.3C182.1 155.3 184.9 155.9 187.8 156.6C190.5 157.3 193.2 155.6 193.8 153C194.5 150.3 192.8 147.6 190.2 147C188.5 146.6 186.6 146.2 184.7 145.9V143C184.7 140.3 182.5 138 179.7 138C176.9 138 174.7 140.2 174.7 143V145.9C172.8 146.3 170.9 146.9 169.1 147.9C165.4 149.9 162 153.6 162.3 159.4C162.6 164.4 165.9 167.2 169 168.9C171.7 170.4 175.1 171.3 177.9 172.1L178.5 172.3C181.7 173.2 184 173.9 185.7 174.9C187.1 175.7 187.2 176.2 187.2 176.6C187.2 177.3 187 177.7 186.9 178C186.7 178.3 186.3 178.7 185.7 179C184.2 179.8 182 180.2 180 180.1C177.1 180.1 174.3 179.1 170.7 178C170.1 177.8 169.5 177.6 168.9 177.4C166.3 176.6 163.5 178.1 162.7 180.7C161.9 183.3 163.4 186.1 166 186.9C166.5 187.1 167 187.2 167.5 187.4C169.7 188.1 172.2 188.9 174.8 189.4V192.9C174.8 195.6 177 197.9 179.8 197.9C182.6 197.9 184.8 195.7 184.8 192.9V189.6C186.7 189.3 188.7 188.6 190.5 187.7C194.2 185.7 197.4 181.9 197.2 176.3C197 171.3 194 168.2 190.8 166.3C187.9 164.6 184.2 163.5 181.4 162.7C178.2 161.8 175.7 161.1 174 160.2C172.5 159.4 172.5 159 172.5 158.8L172.3 158.7Z" fill="#872C8F"/>
</g>
<defs>
<clipPath id="clip0_9610_111166">
<rect width="274" height="275" fill="white"/>
</clipPath>
</defs>
</svg>
