<svg width="278" height="278" viewBox="0 0 278 278" fill="none" xmlns="http://www.w3.org/2000/svg">
<g clip-path="url(#clip0_9610_111143)">
<path d="M137.3 0.699997C61.9 0.699997 0.599976 62 0.599976 137.4C0.599976 212.8 61.9 274.1 137.3 274.1C212.7 274.1 274 212.8 274 137.4C274 62 212.7 0.699997 137.3 0.699997ZM137.3 264C67.5 264 10.6 207.2 10.6 137.3C10.6 67.4 67.4 10.6 137.3 10.6C207.2 10.6 264 67.4 264 137.3C264 207.2 207.2 264 137.3 264Z" fill="#07AB50"/>
<path d="M190.3 166.2L151.9 188.5C150.8 189.1 149.8 189.6 148.7 190C149 189.4 149.2 188.7 149.4 188C151.5 180.1 146.8 171.9 138.8 169.3C138.6 169.3 138.4 169.2 138.2 169.2C127.3 167.2 116.4 163.3 107.7 160.2C104.7 159.1 101.8 158.1 99.3 157.3C89.1 154 79.9 158 72.3 162.4L46.2 177.5C46 177.5 45.7 177.7 45.5 177.8L44.1 178.6C43.3 179.1 42.8 179.8 42.5 180.7C42.3 181.6 42.4 182.5 42.8 183.3L66.6 224.6C67.1 225.4 67.8 225.9 68.7 226.2C69 226.2 69.3 226.3 69.6 226.3C70.2 226.3 70.8 226.1 71.3 225.8L71.7 225.6H71.8L72.7 225L76.6 222.7L125.3 235.7C128.2 236.5 131 236.9 133.8 236.9C139.3 236.9 144.6 235.4 149.5 232.3L219.1 189.4C225.9 185.2 228.1 174.6 223.7 167.2C221.6 163.6 212.8 153 190.2 166.2H190.3ZM214.5 181.7L144.9 224.6C139.6 227.8 133.9 228.6 127.8 227L77.3 213.5C76.1 213.2 74.9 213.3 73.9 214L71.3 215.5L53.1 184L76.9 170.2C83.1 166.6 89.7 163.6 96.6 165.8C98.9 166.5 101.5 167.5 104.6 168.6H104.7C113.6 171.9 124.7 175.9 136.3 178C139.7 179.2 141.6 182.5 140.7 185.7C139.8 189.1 137.2 190.6 133.1 190.2C127.5 189 122.1 187.5 116.5 185.9H116.3C113.7 185.1 110.9 184.3 108.1 183.6C105.7 183 103.2 184.4 102.6 186.8C102 189.2 103.4 191.7 105.8 192.3C108.5 193 111.2 193.8 113.8 194.5H114C119.9 196.2 125.4 197.8 131.4 199C131.4 199 131.4 199 136.4 199.8C143.8 201 150.4 199.8 156.5 196.3L194.9 174C205.4 167.9 213.3 167.1 216.1 171.9C218 175.1 217.2 180.1 214.5 181.8V181.7Z" fill="#07AB50"/>
<path d="M180.3 35C174.3 33.1 168 32.1 161.4 32.1C147.1 32.1 133.9 37 123.3 45.1C107.5 56.9 97.3 75.7 97.3 96.9C97.3 132.5 126.3 161.5 161.9 161.5C197.5 161.5 226.5 132.5 226.5 96.9C226.5 61.3 207 43 180.4 35H180.3ZM130 51.3C131.1 51.7 132 52 132.7 52.3C138 54.2 139 54.2 147.8 52.3C152.3 51.3 153 51.9 154.5 53.1C156.1 54.4 158.3 56.2 162.8 56.9C163.9 57.1 164.5 57.2 164.9 57.3C164.9 57.4 164.9 57.6 164.9 57.9C164.9 58.6 164.8 59.1 164.7 59.7C164.7 60 164.7 60.3 164.6 60.6C164.5 61.7 164.4 62.4 164.3 62.8C163.4 63 162.4 63.2 161.4 63.5C154.9 64.9 149.9 67.2 146.4 70.4C144.4 72.3 143 74.8 142.4 77.7C142.1 77.9 141.1 78.2 138.3 78.6C135.1 79.1 131 79.7 129.4 83.3C128.5 85.3 128.7 87.8 129.9 90.5C130.2 91.1 130.5 91.7 130.8 92.3C129.8 91.5 128.8 90.8 127.8 90.3C123.8 88 116.5 83.6 112.1 71.9C116.3 63.6 122.5 56.5 130 51.2V51.3ZM136.9 100.4C139.3 101.9 141.6 101.6 144.6 101.3C145.6 101.2 146.8 101 148.3 100.9C150.5 101.1 162.9 104.8 166.7 109.1C167.1 109.6 167.3 109.9 167.3 110C166.9 115.4 164.4 118.4 161.5 121.9C158.6 125.3 155.4 129.2 154.6 135.5C154.1 139.3 153.2 141.5 152.6 142.6C151.9 141.3 150.8 138.6 149.8 133C147.7 121 144.2 117.7 140.2 115C138.1 113.6 137 112.8 136.9 105.2C136.9 103.3 136.6 101.5 136.1 99.9C136.4 100.1 136.6 100.3 136.9 100.5V100.4ZM128.7 141.5C128.5 141.3 128.3 141.2 128.1 141C127.7 140.7 127.4 140.4 127 140.1C114.4 129.8 106.3 114 106.3 96.3C106.3 78.6 106.3 94.1 106.4 93.1C106.4 92.7 106.4 92.3 106.4 91.9C106.4 91.5 106.4 91.1 106.5 90.8C106.8 87.9 107.3 85.1 108.1 82.4C113.4 91.3 120.1 95.3 123.7 97.4C125.6 98.5 126.9 99.6 127.8 101C128.6 102.2 128.7 103.8 128.7 105.1C128.8 116.2 131.6 119 135.5 121.7C137.7 123.2 140 124.8 141.7 134.4C142.4 138.2 144.3 149.1 150.3 151.3C142.3 149.6 135 146.2 128.7 141.5ZM161.4 152.5C161.2 152.5 161 152.5 160.8 152.5C158 152.5 155.2 152.2 152.5 151.7H152.7C158.7 151.5 161.7 143.7 162.6 136.5C163.1 132.7 165.2 130.1 167.6 127.2C170.9 123.2 174.7 118.7 175.3 110.6C175.5 107.9 174.4 105.3 172.1 102.9C165.9 96.7 151 92.3 147.8 92.6C146.1 92.7 144.8 92.9 143.7 93C142.9 93 141.6 93.2 141.2 93.2C140.7 92.8 140.2 91.9 139.8 91.2C139.6 90.9 139.5 90.6 139.3 90.4C139.3 90.2 138.8 89.6 138.4 88.8C138 88.1 137.7 87.5 137.4 87.1C138.1 86.9 138.8 86.8 139.4 86.8C143 86.3 149.1 85.4 150.3 79.4C150.8 76.8 152.1 76 154.9 74.5C156.8 73.5 158.5 72.6 160.6 72.1C161.5 71.9 162.4 71.7 163.4 71.5C164.5 71.3 165.6 71 166.7 70.7C167.4 70.5 168.1 70.2 168.7 69.8C170.3 68.8 171.4 67.2 172.1 65C172.8 62.7 173.1 59.9 173.1 57.2C173.1 55 172.5 53.3 171.4 51.9C169.6 49.6 166.9 49.1 164 48.7C161.8 48.4 160.9 47.7 159.8 46.7C157 44.3 154 42.5 146.2 44.2C143.9 44.7 142.4 45 141.2 45.2C147.6 42.7 154.5 41.2 161.8 41.2C173 41.2 183.5 44.6 192.2 50.3C189.5 51.4 186.8 52.7 184.9 54.9C182.7 57.5 182.2 60.9 182.3 63.3C182.3 66.3 182.8 68.8 183.7 70.6C185.5 74.2 190.1 73.6 197 72.8C197.8 72.8 199.1 72.6 199.3 72.5C199.4 72.5 199.5 72.5 199.6 72.5C199.8 73.2 199.5 74.6 199 75.6C196.4 75.7 190.4 75.4 187.3 74.4C184.8 73.6 182.1 74.6 179.8 77.3C178.6 78.7 176.7 81.4 177.7 84.1C177.5 84.6 176.7 85.7 176.4 86.1C174.8 88.3 172.6 91.4 173.3 95.5C174 99.5 177.2 102.3 179.6 104C182.7 106.3 186.8 106.4 190.1 106.4C191.8 106.4 193.5 106.4 193.9 106.9C194.2 107.2 195.2 108.8 195.1 115.3C195.1 117 195.1 118.3 195.3 119.6C195.5 122.2 195.7 124.4 194.5 129.1C193.7 132.2 194.9 135.2 197.6 136.8C198 137 198.4 137.2 198.8 137.4C188.6 147.1 175.3 152.4 161.3 152.4L161.4 152.5ZM206.5 128.5C205.3 129.5 203.8 129.8 202.8 129.8C203.9 124.6 203.7 121.8 203.5 119C203.5 117.9 203.3 116.8 203.4 115.6C203.5 108.4 202.5 104 199.9 101.3C197.1 98.4 193.4 98.3 190.3 98.2C188.5 98.2 186.6 98.2 184.8 97.6C181.8 95.5 181.4 94.3 181.4 94.1C181.3 93.5 182.3 92.1 183.1 91C184.5 89.1 186.5 86.3 185.9 82.9C185.9 82.9 186 82.8 186.1 82.7C191.1 84 199.5 84.3 202.1 83.6C205.9 82.5 208.3 76.4 207.8 71.8C207.3 67.4 204.2 64.5 199.7 64.3C199 64.3 198 64.3 196.1 64.6C194.9 64.7 192.4 65 190.7 65.1C190.4 62.9 190.6 60.9 191.2 60.3C192.9 58.8 196.2 57.6 198.6 56.8C199.1 56.6 199.5 56.5 199.9 56.4C200.6 57.1 201.4 57.8 202.1 58.6C211.4 69 216.5 82.2 216.5 96.4C216.5 110.6 213.1 119.1 206.5 128.5Z" fill="#07AB50"/>
</g>
<defs>
<clipPath id="clip0_9610_111143">
<rect width="274" height="275" fill="white"/>
</clipPath>
</defs>
</svg>
