<svg width="278" height="278" viewBox="0 0 278 278" fill="none" xmlns="http://www.w3.org/2000/svg">
<g clip-path="url(#clip0_9610_111137)">
<path d="M137.3 274C61.9 274 0.599998 212.7 0.599998 137.3C0.599998 61.9 62 0.699997 137.3 0.699997C212.6 0.699997 274 62 274 137.4C274 212.8 212.7 274.1 137.3 274.1V274ZM137.3 10.7C67.5 10.7 10.6 67.5 10.6 137.4C10.6 207.3 67.4 264.1 137.3 264.1C207.2 264.1 264 207.3 264 137.4C264 67.5 207.2 10.7 137.3 10.7Z" fill="#07AB50"/>
<path d="M154 66.9H195.8C202.3 66.9 207.5 72.1 207.5 78.6V172.2C199.9 172.2 192.3 168.5 186.2 164.4C183.5 162.6 181.2 160.6 179 158.6C175.3 155.1 169.5 155.1 165.8 158.6C163.6 160.6 161.2 162.6 158.6 164.4C152.6 168.5 145 172.2 137.4 172.2C129.8 172.2 122.2 168.6 116.1 164.4C113.4 162.6 111.1 160.6 108.9 158.6C105.2 155.1 99.4 155.1 95.7 158.6C93.5 160.6 91.1 162.6 88.5 164.4C82.5 168.5 74.9 172.2 67.3 172.2V78.6C67.3 72.1 72.5 66.9 79 66.9H120.8L123 63.2L128 55.2H79C66.1 55.2 55.6 65.7 55.6 78.6V195.6C55.6 208.5 66.1 219 79 219H196C208.9 219 219.4 208.5 219.4 195.6V78.6C219.4 65.7 208.9 55.2 196 55.2H147L152 63.2L154.2 66.9H154ZM67.1 183.9C78.2 183.9 88.1 178.7 95 174.1C97.9 172.1 100.3 170.2 102.2 168.5C104.1 170.1 106.6 172.1 109.4 174.1C116.2 178.7 126.2 183.9 137.3 183.9C148.4 183.9 158.3 178.7 165.2 174.1C168.1 172.1 170.5 170.2 172.4 168.5C174.3 170.1 176.8 172.1 179.6 174.1C186.4 178.7 196.4 183.9 207.5 183.9V195.6C207.5 202.1 202.3 207.3 195.8 207.3H78.8C72.3 207.3 67.1 202.1 67.1 195.6V183.9ZM141.9 69.3C140.9 67.8 139.2 66.9 137.4 66.9C135.6 66.9 133.9 67.8 132.9 69.3L115.6 95.2C112.6 99.6 111.1 104.8 111.1 110.2V110.8C111.1 125.4 122.9 137.1 137.4 137.1C151.9 137.1 163.7 125.3 163.7 110.8V110.2C163.7 104.9 162.1 99.7 159.2 95.2L141.9 69.3ZM137.3 83.6L149.4 101.7C151.1 104.2 152 107.1 152 110.1V110.7C152 118.8 145.5 125.3 137.4 125.3C129.3 125.3 122.8 118.8 122.8 110.7V110.1C122.8 107.1 123.7 104.1 125.4 101.7L137.5 83.6H137.3Z" fill="#07AB50"/>
</g>
<defs>
<clipPath id="clip0_9610_111137">
<rect width="274" height="275" fill="white"/>
</clipPath>
</defs>
</svg>
