<svg width="278" height="278" viewBox="0 0 278 278" fill="none" xmlns="http://www.w3.org/2000/svg">
<g clip-path="url(#clip0_9610_111163)">
<path d="M137.3 0.700012C61.9 0.700012 0.599976 62 0.599976 137.4C0.599976 212.8 61.9 274.1 137.3 274.1C212.7 274.1 274 212.8 274 137.4C274 62 212.7 0.700012 137.3 0.700012ZM137.3 264C67.5 264 10.6 207.2 10.6 137.3C10.6 67.4 67.4 10.6 137.3 10.6C207.2 10.6 264 67.4 264 137.3C264 207.2 207.2 264 137.3 264Z" fill="#07AB50"/>
<path d="M182.4 95.1C182.4 94.2 182.4 93.3 182.4 92.5V72.4C182.4 70.5 181.5 68.9 180 67.9C178.3 66.9 176.1 66.9 174.5 67.9C172.9 68.8 172.1 70.4 172.1 72.3V84.8C170.5 85.4 167.2 87.2 158.9 92.2C158.4 92.5 158 92.8 157.5 93C163.6 79.7 161.4 64.1 151.4 53.1L143.3 44.2C143.1 43.9 142.8 43.7 142.5 43.5V27.7C142.5 24.4 139.9 22.6 137.3 22.6C134.7 22.6 132.1 24.4 132.1 27.7V43.5C131.8 43.7 131.6 44 131.3 44.2L123.2 53.1C113.1 64.1 110.9 79.8 117.1 93C116.7 92.8 116.3 92.5 115.8 92.2C107.4 87.2 104 85.3 102.5 84.7V72.2C102.5 70.8 101.9 69.5 100.9 68.6C99.9 67.6 98.6 67.1 97.2 67.1C94.4 67.1 92.2 69.4 92.1 72.2V92.3C92.1 93.3 92.1 94.3 92.1 95.3C92.1 103.7 91.9 113.2 96 120.7C93.7 122 92.2 124.7 92.2 127.5V139.6C92.2 145.2 93.5 150.8 96 155.9C93.7 157.2 92.1 159.9 92.2 162.7V174.8C92.2 187.6 99.3 200 110.3 206.4C110.6 206.6 112.5 207.8 114.6 209C126.1 215.8 130.2 218.1 132 218.8V248.4C132 251.7 134.6 253.5 137.2 253.5C139.8 253.5 142.4 251.7 142.4 248.4V218.8C144.2 218.1 148.2 215.8 158.7 209.6C161.3 208.1 163.7 206.6 164 206.5H164.1C175.3 199.9 182.2 187.8 182.2 174.9V162.8C182.2 160 180.7 157.3 178.4 155.9C182.5 148.4 182.4 138.7 182.3 130.1C182.3 129.2 182.3 128.4 182.3 127.6C182.5 124.7 180.9 122 178.5 120.7C182.6 113.2 182.5 103.5 182.4 94.9V95.1ZM148.8 168.6C146.8 169.8 144.7 170.9 142.4 172.2V164.1C142.4 154.8 147.4 146.2 155.4 141.5L172.1 131.8C173.2 154.8 164.9 159.5 148.8 168.6ZM142.4 136.9V128.8C142.4 119.5 147.4 110.9 155.4 106.2L172.1 96.5C173.2 119.5 164.9 124.2 148.8 133.3C146.8 134.5 144.7 135.6 142.4 136.9ZM172 167.1V175.2C172 184.5 167 193.1 159 197.8L142.3 207.5C141.2 184.5 149.5 179.8 165.6 170.7C167.6 169.6 169.7 168.4 171.9 167.1H172ZM129.8 61.4C130.2 60.8 133.6 57.1 135.6 54.9C136.2 54.2 136.7 53.6 137.2 53.2L143.6 60.2C148.9 66 151.2 73.4 150.2 81C149.1 89.1 144.4 96.3 137.3 101C130.4 96.5 125.8 89.5 124.5 81.7C123.3 74.4 125.2 67.2 129.9 61.4H129.8ZM132.1 137L115.4 127.3C107.4 122.6 102.4 113.9 102.4 104.7V96.6C104.6 97.9 106.7 99.1 108.7 100.2C124.9 109.3 133.2 114 132 137H132.1ZM102.5 167.1C104.7 168.4 106.8 169.6 108.8 170.7C125 179.8 133.3 184.5 132.2 207.5L115.5 197.8C107.5 193.1 102.5 184.4 102.5 175.2V167.1ZM132.1 172.3L115.4 162.6C107.4 157.9 102.4 149.2 102.4 140V131.9C104.6 133.2 106.7 134.4 108.7 135.5C124.9 144.6 133.2 149.3 132.1 172.3Z" fill="#07AB50"/>
</g>
<defs>
<clipPath id="clip0_9610_111163">
<rect width="274" height="275" fill="white"/>
</clipPath>
</defs>
</svg>
