<svg width="278" height="278" viewBox="0 0 278 278" fill="none" xmlns="http://www.w3.org/2000/svg">
<g clip-path="url(#clip0_9610_111192)">
<path d="M137.3 0.700012C61.9 0.700012 0.600006 62 0.600006 137.4C0.600006 212.8 61.9 274.1 137.3 274.1C212.7 274.1 274 212.8 274 137.4C274 62 212.7 0.700012 137.3 0.700012ZM137.3 264C67.5 264 10.6 207.2 10.6 137.3C10.6 67.4 67.4 10.6 137.3 10.6C207.2 10.6 264 67.4 264 137.3C264 207.2 207.2 264 137.3 264Z" fill="#91302F"/>
<path d="M151.1 55.7C155.1 52 157.3 46.9 157.3 41.4C157.3 30.6 148.5 21.9 137.8 21.9C127.1 21.9 118.3 30.7 118.3 41.4C118.3 52.1 120.6 52 124.6 55.7C114.3 57 106.5 65.8 106.5 76.3V90.4C106.5 94.5 109.8 97.8 113.9 97.8H115.3V76.2C115.3 69.7 120.7 64.3 127.2 64.3H148.4C154.9 64.3 160.3 69.6 160.3 76.2V97.8H161.8C165.9 97.8 169.2 94.5 169.2 90.4V76.3C169.2 65.8 161.3 57 151.1 55.7ZM148.4 41.4C148.4 47.2 143.6 52 137.8 52C132 52 127.2 47.2 127.2 41.4C127.2 35.6 132 30.8 137.8 30.8C143.6 30.8 148.4 35.6 148.4 41.4Z" fill="#91302F"/>
<path d="M151.1 209.1C155.1 205.4 157.3 200.3 157.3 194.8C157.3 184 148.5 175.3 137.8 175.3C127.1 175.3 118.3 184.1 118.3 194.8C118.3 205.5 120.6 205.4 124.5 209.1C114.2 210.4 106.4 219.2 106.4 229.7V243.8C106.4 247.9 109.7 251.2 113.8 251.2H115.2V229.6C115.2 223.1 120.6 217.7 127.1 217.7H148.3C154.8 217.7 160.2 223 160.2 229.6V251.2H161.7C165.8 251.2 169.1 247.9 169.1 243.8V229.7C169.1 219.2 161.2 210.4 151 209.1H151.1ZM148.4 194.8C148.4 200.6 143.6 205.4 137.8 205.4C132 205.4 127.2 200.6 127.2 194.8C127.2 189 132 184.2 137.8 184.2C143.6 184.2 148.4 189 148.4 194.8Z" fill="#91302F"/>
<path d="M71.4 139.8C77.9 139.8 83.3 145.1 83.3 151.7V173.3H84.8C88.9 173.3 92.2 170 92.2 165.9V151.8C92.2 141.3 84.3 132.5 74.1 131.2C78.1 127.5 80.4 122.4 80.4 116.9C80.4 106.1 71.6 97.4 60.9 97.4C50.2 97.4 41.4 106.1 41.4 116.9C41.4 127.7 43.7 127.5 47.7 131.2C37.4 132.5 29.6 141.3 29.6 151.8V165.9C29.6 170 32.9 173.3 37 173.3H38.4V151.7C38.4 145.2 43.8 139.8 50.3 139.8H71.5H71.4ZM50.2 116.8C50.2 111 55 106.2 60.8 106.2C66.6 106.2 71.4 111 71.4 116.8C71.4 122.6 66.6 127.4 60.8 127.4C55 127.4 50.2 122.6 50.2 116.8Z" fill="#91302F"/>
<path d="M230.1 131.1C234.1 127.4 236.4 122.3 236.4 116.8C236.4 106 227.6 97.3 216.9 97.3C206.2 97.3 197.4 106 197.4 116.8C197.4 127.6 199.7 127.4 203.7 131.1C193.4 132.4 185.6 141.2 185.6 151.7V165.8C185.6 169.9 188.9 173.2 193 173.2H194.4V151.6C194.4 145.1 199.8 139.7 206.3 139.7H227.5C234 139.7 239.4 145 239.4 151.6V173.2H240.9C245 173.2 248.3 169.9 248.3 165.8V151.7C248.3 141.2 240.4 132.4 230.2 131.1H230.1ZM227.4 116.8C227.4 122.6 222.6 127.4 216.8 127.4C211 127.4 206.2 122.6 206.2 116.8C206.2 111 211 106.2 216.8 106.2C222.6 106.2 227.4 111 227.4 116.8Z" fill="#91302F"/>
<path d="M75.2 68.3L59.2 85.2L66.5 92.1L82.5 75.2L89.9 82.2L96.9 52.7L67.8 61.3L75.2 68.3Z" fill="#91302F"/>
<path d="M181.4 81.5L210.1 91.3L204.2 61.6L196.6 68.3L181.3 50.7L173.7 57.3L189 74.8L181.4 81.5Z" fill="#91302F"/>
<path d="M219 180.1L199.7 193.2L194 184.8L180.8 212.1L211.1 209.9L205.3 201.5L224.6 188.4L219 180.1Z" fill="#91302F"/>
<path d="M74.8 193.2L55.5 180.1L49.9 188.4L69.2 201.5L63.4 209.9L93.7 212.1L80.5 184.8L74.8 193.2Z" fill="#91302F"/>
</g>
<defs>
<clipPath id="clip0_9610_111192">
<rect width="274" height="275" fill="white"/>
</clipPath>
</defs>
</svg>
