<svg width="278" height="278" viewBox="0 0 278 278" fill="none" xmlns="http://www.w3.org/2000/svg">
<g clip-path="url(#clip0_9610_111140)">
<path d="M137.3 0.700012C61.9 0.700012 0.600006 62 0.600006 137.4C0.600006 212.8 61.9 274.1 137.3 274.1C212.7 274.1 274 212.8 274 137.4C274 62 212.7 0.700012 137.3 0.700012ZM137.3 264C67.5 264 10.6 207.2 10.6 137.3C10.6 67.4 67.4 10.6 137.3 10.6C207.2 10.6 264 67.4 264 137.3C264 207.2 207.2 264 137.3 264Z" fill="#91302F"/>
<path d="M193.7 109.4C192.8 108.8 191.8 108.4 190.7 108.4H153L190.3 43.4C191.7 41 190.9 38 188.5 36.7C187.8 36.3 186.9 36 186.1 36H133.8C131.9 36 130.2 37.1 129.4 38.9L79.4 143.7C78.3 146.2 79.4 149.1 81.8 150.2C82.4 150.5 83.1 150.6 83.8 150.7H121.4L94.3 232.4C93.8 234.7 95 237 97.2 237.9C99.3 239 101.9 238.4 103.4 236.5L194.7 116.4C196.3 114.2 195.9 111.1 193.7 109.5V109.4ZM113.5 207.3L133.4 146.9C134.3 144.3 132.9 141.5 130.3 140.7C129.8 140.5 129.3 140.4 128.8 140.4H92.1L137 45.4H177.9L140.5 110.9C139.1 113.3 139.9 116.3 142.3 117.6C143 118 143.9 118.3 144.7 118.3H181L113.5 207.3Z" fill="#91302F"/>
</g>
<defs>
<clipPath id="clip0_9610_111140">
<rect width="274" height="275" fill="white"/>
</clipPath>
</defs>
</svg>
