<?xml version="1.0" encoding="UTF-8"?>
<svg xmlns="http://www.w3.org/2000/svg" viewBox="0 0 44 32"><path fill="#009edb" d="M37 .94V0l7 7h-6.22a.78.78 0 0 1-.78-.78ZM44 9v21a2 2 0 0 1-2 2H2a2 2 0 0 1-2-2V2a2 2 0 0 1 2-2h33v6.22A2.783 2.783 0 0 0 37.78 9ZM9.618 18l2.277-4.553a1 1 0 1 0-1.79-.894L8.5 15.763l-1.605-3.21a1 1 0 1 0-1.79.894L7.382 18l-2.277 4.553a1 1 0 0 0 1.79.894l1.605-3.21 1.605 3.21a1 1 0 1 0 1.79-.894ZM21 23a1 1 0 0 0-1-1h-4v-9a1 1 0 0 0-2 0v10a1 1 0 0 0 1 1h5a1 1 0 0 0 1-1m8-3a3.003 3.003 0 0 0-3-3h-1a1 1 0 0 1-1-1v-1a1 1 0 0 1 1-1h2a1 1 0 0 0 0-2h-2a3.003 3.003 0 0 0-3 3v1a3.003 3.003 0 0 0 3 3h1a1 1 0 0 1 1 1v1a1 1 0 0 1-1 1h-3a1 1 0 0 0 0 2h3a3.003 3.003 0 0 0 3-3Zm6.618-2 2.277-4.553a1 1 0 0 0-1.79-.894l-1.605 3.21-1.605-3.21a1 1 0 0 0-1.79.894L33.382 18l-2.277 4.553a1 1 0 0 0 1.79.894l1.605-3.21 1.605 3.21a1 1 0 0 0 1.79-.894Z" data-name="Layer 2" style="fill: #ffffff;"/></svg>
